<mxfile host="app.diagrams.net" agent="Mozilla/5.0 (Macintosh; Intel Mac OS X 10_15_7) AppleWebKit/537.36 (KHTML, like Gecko) Chrome/129.0.0.0 Safari/537.36" version="24.7.17" pages="2">
  <diagram name="Page-1" id="90a13364-a465-7bf4-72fc-28e22215d7a0">
    <mxGraphModel dx="828" dy="496" grid="1" gridSize="10" guides="1" tooltips="1" connect="1" arrows="1" fold="1" page="1" pageScale="1.5" pageWidth="1169" pageHeight="826" background="none" math="0" shadow="0">
      <root>
        <mxCell id="0" style=";html=1;" />
        <mxCell id="1" style=";html=1;" parent="0" />
        <mxCell id="8pnUB7vIPf61kDL3e0Ld-1" style="edgeStyle=orthogonalEdgeStyle;orthogonalLoop=1;jettySize=auto;html=1;startArrow=classic;startFill=1;curved=1;" edge="1" parent="1" source="8pnUB7vIPf61kDL3e0Ld-2" target="8pnUB7vIPf61kDL3e0Ld-7">
          <mxGeometry relative="1" as="geometry" />
        </mxCell>
        <mxCell id="8pnUB7vIPf61kDL3e0Ld-2" value="Users &amp;amp; Coaches" style="html=1;dashed=0;whitespace=wrap;fillColor=#f8cecc;strokeColor=#b85450;" vertex="1" parent="1">
          <mxGeometry x="410" y="88" width="110" height="50" as="geometry" />
        </mxCell>
        <mxCell id="8pnUB7vIPf61kDL3e0Ld-3" style="edgeStyle=orthogonalEdgeStyle;orthogonalLoop=1;jettySize=auto;html=1;startArrow=classic;startFill=1;curved=1;" edge="1" parent="1" source="8pnUB7vIPf61kDL3e0Ld-7" target="8pnUB7vIPf61kDL3e0Ld-12">
          <mxGeometry relative="1" as="geometry" />
        </mxCell>
        <mxCell id="8pnUB7vIPf61kDL3e0Ld-4" style="edgeStyle=orthogonalEdgeStyle;orthogonalLoop=1;jettySize=auto;html=1;startArrow=classic;startFill=1;curved=1;entryX=0;entryY=0.5;entryDx=0;entryDy=0;" edge="1" parent="1" source="8pnUB7vIPf61kDL3e0Ld-7" target="8pnUB7vIPf61kDL3e0Ld-15">
          <mxGeometry relative="1" as="geometry" />
        </mxCell>
        <mxCell id="8pnUB7vIPf61kDL3e0Ld-5" style="edgeStyle=orthogonalEdgeStyle;curved=1;orthogonalLoop=1;jettySize=auto;html=1;startArrow=none;startFill=0;dashed=1;exitX=1;exitY=1;exitDx=0;exitDy=0;" edge="1" parent="1" source="8pnUB7vIPf61kDL3e0Ld-7" target="8pnUB7vIPf61kDL3e0Ld-16">
          <mxGeometry relative="1" as="geometry" />
        </mxCell>
        <mxCell id="8pnUB7vIPf61kDL3e0Ld-6" style="edgeStyle=orthogonalEdgeStyle;curved=1;orthogonalLoop=1;jettySize=auto;html=1;startArrow=classic;startFill=1;" edge="1" parent="1" source="8pnUB7vIPf61kDL3e0Ld-7" target="8pnUB7vIPf61kDL3e0Ld-20">
          <mxGeometry relative="1" as="geometry" />
        </mxCell>
        <mxCell id="8pnUB7vIPf61kDL3e0Ld-7" value="Habit &lt;br&gt;Tracker &lt;br&gt;App&lt;br&gt;" style="shape=ellipse;html=1;dashed=0;whitespace=wrap;aspect=fixed;perimeter=ellipsePerimeter;fillColor=#dae8fc;strokeColor=#6c8ebf;" vertex="1" parent="1">
          <mxGeometry x="417.5" y="172.5" width="85" height="85" as="geometry" />
        </mxCell>
        <mxCell id="8pnUB7vIPf61kDL3e0Ld-8" style="edgeStyle=orthogonalEdgeStyle;orthogonalLoop=1;jettySize=auto;html=1;startArrow=classic;startFill=1;curved=1;" edge="1" parent="1" source="8pnUB7vIPf61kDL3e0Ld-12" target="8pnUB7vIPf61kDL3e0Ld-14">
          <mxGeometry relative="1" as="geometry">
            <mxPoint x="190" y="210.5" as="targetPoint" />
          </mxGeometry>
        </mxCell>
        <mxCell id="8pnUB7vIPf61kDL3e0Ld-9" value="UserID, &lt;br style=&quot;font-size: 10px;&quot;&gt;Password, &lt;br style=&quot;font-size: 10px;&quot;&gt;Habits,&lt;br style=&quot;font-size: 10px;&quot;&gt;HabitCheckins,&lt;br style=&quot;font-size: 10px;&quot;&gt;Coach,&lt;br style=&quot;font-size: 10px;&quot;&gt;Users&lt;br style=&quot;font-size: 10px;&quot;&gt;" style="text;html=1;resizable=0;points=[];align=center;verticalAlign=middle;labelBackgroundColor=#ffffff;fontSize=10;" vertex="1" connectable="0" parent="8pnUB7vIPf61kDL3e0Ld-8">
          <mxGeometry x="0.4125" y="-6" relative="1" as="geometry">
            <mxPoint x="20" y="23" as="offset" />
          </mxGeometry>
        </mxCell>
        <mxCell id="8pnUB7vIPf61kDL3e0Ld-10" style="edgeStyle=orthogonalEdgeStyle;orthogonalLoop=1;jettySize=auto;html=1;startArrow=classic;startFill=1;curved=1;" edge="1" parent="1" source="8pnUB7vIPf61kDL3e0Ld-12" target="8pnUB7vIPf61kDL3e0Ld-13">
          <mxGeometry relative="1" as="geometry" />
        </mxCell>
        <mxCell id="8pnUB7vIPf61kDL3e0Ld-11" value="UserID, Password&lt;br style=&quot;font-size: 10px;&quot;&gt;" style="text;html=1;resizable=0;points=[];align=center;verticalAlign=middle;labelBackgroundColor=#ffffff;fontSize=10;" vertex="1" connectable="0" parent="8pnUB7vIPf61kDL3e0Ld-10">
          <mxGeometry x="0.2036" y="3" relative="1" as="geometry">
            <mxPoint x="8" y="-7" as="offset" />
          </mxGeometry>
        </mxCell>
        <mxCell id="8pnUB7vIPf61kDL3e0Ld-12" value="User&amp;nbsp;&lt;br&gt;API" style="shape=ellipse;html=1;dashed=0;whitespace=wrap;aspect=fixed;perimeter=ellipsePerimeter;fillColor=#dae8fc;strokeColor=#6c8ebf;" vertex="1" parent="1">
          <mxGeometry x="260" y="132.5" width="80" height="80" as="geometry" />
        </mxCell>
        <mxCell id="8pnUB7vIPf61kDL3e0Ld-13" value="Authentication &lt;br&gt;service" style="html=1;dashed=0;whitespace=wrap;fillColor=#f8cecc;strokeColor=#b85450;" vertex="1" parent="1">
          <mxGeometry x="20" y="98" width="110" height="50" as="geometry" />
        </mxCell>
        <mxCell id="8pnUB7vIPf61kDL3e0Ld-14" value="User database" style="html=1;dashed=0;whitespace=wrap;shape=partialRectangle;right=0;left=0;fillColor=#d5e8d4;strokeColor=#82b366;" vertex="1" parent="1">
          <mxGeometry x="20" y="198" width="110" height="30" as="geometry" />
        </mxCell>
        <mxCell id="8pnUB7vIPf61kDL3e0Ld-15" value="Habits database" style="html=1;dashed=0;whitespace=wrap;shape=partialRectangle;right=0;left=0;fillColor=#d5e8d4;strokeColor=#82b366;" vertex="1" parent="1">
          <mxGeometry x="590" y="108" width="110" height="30" as="geometry" />
        </mxCell>
        <mxCell id="8pnUB7vIPf61kDL3e0Ld-16" value="Logs" style="html=1;dashed=0;whitespace=wrap;shape=partialRectangle;right=0;left=0;fillColor=#d5e8d4;strokeColor=#82b366;" vertex="1" parent="1">
          <mxGeometry x="590" y="200" width="110" height="30" as="geometry" />
        </mxCell>
        <mxCell id="8pnUB7vIPf61kDL3e0Ld-17" style="edgeStyle=orthogonalEdgeStyle;curved=1;orthogonalLoop=1;jettySize=auto;html=1;startArrow=none;startFill=0;entryX=0;entryY=0.5;entryDx=0;entryDy=0;dashed=1;exitX=1;exitY=0;exitDx=0;exitDy=0;" edge="1" parent="1" source="8pnUB7vIPf61kDL3e0Ld-20" target="8pnUB7vIPf61kDL3e0Ld-16">
          <mxGeometry relative="1" as="geometry" />
        </mxCell>
        <mxCell id="8pnUB7vIPf61kDL3e0Ld-18" style="edgeStyle=orthogonalEdgeStyle;curved=1;orthogonalLoop=1;jettySize=auto;html=1;startArrow=classic;startFill=1;" edge="1" parent="1" source="8pnUB7vIPf61kDL3e0Ld-20" target="8pnUB7vIPf61kDL3e0Ld-21">
          <mxGeometry relative="1" as="geometry" />
        </mxCell>
        <mxCell id="8pnUB7vIPf61kDL3e0Ld-19" style="edgeStyle=orthogonalEdgeStyle;curved=1;orthogonalLoop=1;jettySize=auto;html=1;startArrow=classic;startFill=1;" edge="1" parent="1" source="8pnUB7vIPf61kDL3e0Ld-20" target="8pnUB7vIPf61kDL3e0Ld-22">
          <mxGeometry relative="1" as="geometry" />
        </mxCell>
        <mxCell id="8pnUB7vIPf61kDL3e0Ld-20" value="Payments &lt;br&gt;API" style="shape=ellipse;html=1;dashed=0;whitespace=wrap;perimeter=ellipsePerimeter;fillColor=#dae8fc;strokeColor=#6c8ebf;" vertex="1" parent="1">
          <mxGeometry x="415" y="303" width="90" height="90" as="geometry" />
        </mxCell>
        <mxCell id="8pnUB7vIPf61kDL3e0Ld-21" value="Payments database" style="html=1;dashed=0;whitespace=wrap;shape=partialRectangle;right=0;left=0;fillColor=#d5e8d4;strokeColor=#82b366;" vertex="1" parent="1">
          <mxGeometry x="590" y="273" width="110" height="30" as="geometry" />
        </mxCell>
        <mxCell id="8pnUB7vIPf61kDL3e0Ld-22" value="Payment &lt;br&gt;Processing &lt;br&gt;Service" style="html=1;dashed=0;whitespace=wrap;fillColor=#f8cecc;strokeColor=#b85450;" vertex="1" parent="1">
          <mxGeometry x="590" y="323" width="110" height="50" as="geometry" />
        </mxCell>
      </root>
    </mxGraphModel>
  </diagram>
  <diagram id="7aPY2_fSseEVCrYF_OQx" name="Page-2">
    <mxGraphModel dx="828" dy="496" grid="1" gridSize="10" guides="1" tooltips="1" connect="1" arrows="1" fold="1" page="1" pageScale="1" pageWidth="850" pageHeight="1100" math="0" shadow="0">
      <root>
        <mxCell id="0" />
        <mxCell id="1" parent="0" />
        <mxCell id="N3vSe3UWMCj6YOlHDhKJ-53" value="" style="edgeStyle=orthogonalEdgeStyle;rounded=0;orthogonalLoop=1;jettySize=auto;html=1;" edge="1" parent="1" source="N3vSe3UWMCj6YOlHDhKJ-39" target="N3vSe3UWMCj6YOlHDhKJ-48">
          <mxGeometry relative="1" as="geometry" />
        </mxCell>
        <mxCell id="N3vSe3UWMCj6YOlHDhKJ-39" value="" style="fontStyle=1;align=center;verticalAlign=middle;childLayout=stackLayout;horizontal=1;horizontalStack=0;resizeParent=1;resizeParentMax=0;resizeLast=0;marginBottom=0;strokeWidth=2;" vertex="1" parent="1">
          <mxGeometry x="600" y="80" width="200" height="64" as="geometry" />
        </mxCell>
        <mxCell id="N3vSe3UWMCj6YOlHDhKJ-40" value="F.1.1" style="html=1;align=center;spacing=0;verticalAlign=top;strokeColor=none;fillColor=none;whiteSpace=wrap;fontStyle=1" vertex="1" parent="N3vSe3UWMCj6YOlHDhKJ-39">
          <mxGeometry width="200" height="20" as="geometry" />
        </mxCell>
        <mxCell id="N3vSe3UWMCj6YOlHDhKJ-44" value="" style="line;strokeWidth=0.25;fillColor=none;align=left;verticalAlign=middle;spacingTop=-1;spacingLeft=3;spacingRight=3;rotatable=0;labelPosition=right;points=[];portConstraint=eastwest;" vertex="1" parent="N3vSe3UWMCj6YOlHDhKJ-39">
          <mxGeometry y="20" width="200" height="8" as="geometry" />
        </mxCell>
        <mxCell id="N3vSe3UWMCj6YOlHDhKJ-46" value="Function 11" style="html=1;align=center;spacing=0;verticalAlign=middle;strokeColor=none;fillColor=none;whiteSpace=wrap;" vertex="1" parent="N3vSe3UWMCj6YOlHDhKJ-39">
          <mxGeometry y="28" width="200" height="16" as="geometry" />
        </mxCell>
        <mxCell id="N3vSe3UWMCj6YOlHDhKJ-47" value="" style="html=1;align=center;spacing=0;verticalAlign=middle;strokeColor=none;fillColor=none;whiteSpace=wrap;" vertex="1" parent="N3vSe3UWMCj6YOlHDhKJ-39">
          <mxGeometry y="44" width="200" height="20" as="geometry" />
        </mxCell>
        <mxCell id="N3vSe3UWMCj6YOlHDhKJ-59" value="" style="edgeStyle=orthogonalEdgeStyle;rounded=0;orthogonalLoop=1;jettySize=auto;html=1;" edge="1" parent="1" source="N3vSe3UWMCj6YOlHDhKJ-48" target="N3vSe3UWMCj6YOlHDhKJ-54">
          <mxGeometry relative="1" as="geometry" />
        </mxCell>
        <mxCell id="N3vSe3UWMCj6YOlHDhKJ-48" value="" style="fontStyle=1;align=center;verticalAlign=middle;childLayout=stackLayout;horizontal=1;horizontalStack=0;resizeParent=1;resizeParentMax=0;resizeLast=0;marginBottom=0;strokeWidth=2;" vertex="1" parent="1">
          <mxGeometry x="600" y="200" width="200" height="64" as="geometry" />
        </mxCell>
        <mxCell id="N3vSe3UWMCj6YOlHDhKJ-49" value="F.1.1" style="html=1;align=center;spacing=0;verticalAlign=top;strokeColor=none;fillColor=none;whiteSpace=wrap;fontStyle=1" vertex="1" parent="N3vSe3UWMCj6YOlHDhKJ-48">
          <mxGeometry width="200" height="20" as="geometry" />
        </mxCell>
        <mxCell id="N3vSe3UWMCj6YOlHDhKJ-50" value="" style="line;strokeWidth=0.25;fillColor=none;align=left;verticalAlign=middle;spacingTop=-1;spacingLeft=3;spacingRight=3;rotatable=0;labelPosition=right;points=[];portConstraint=eastwest;" vertex="1" parent="N3vSe3UWMCj6YOlHDhKJ-48">
          <mxGeometry y="20" width="200" height="8" as="geometry" />
        </mxCell>
        <mxCell id="N3vSe3UWMCj6YOlHDhKJ-51" value="Function 11" style="html=1;align=center;spacing=0;verticalAlign=middle;strokeColor=none;fillColor=none;whiteSpace=wrap;" vertex="1" parent="N3vSe3UWMCj6YOlHDhKJ-48">
          <mxGeometry y="28" width="200" height="16" as="geometry" />
        </mxCell>
        <mxCell id="N3vSe3UWMCj6YOlHDhKJ-52" value="" style="html=1;align=center;spacing=0;verticalAlign=middle;strokeColor=none;fillColor=none;whiteSpace=wrap;" vertex="1" parent="N3vSe3UWMCj6YOlHDhKJ-48">
          <mxGeometry y="44" width="200" height="20" as="geometry" />
        </mxCell>
        <mxCell id="N3vSe3UWMCj6YOlHDhKJ-54" value="" style="fontStyle=1;align=center;verticalAlign=middle;childLayout=stackLayout;horizontal=1;horizontalStack=0;resizeParent=1;resizeParentMax=0;resizeLast=0;marginBottom=0;strokeWidth=2;" vertex="1" parent="1">
          <mxGeometry x="600" y="320" width="200" height="64" as="geometry" />
        </mxCell>
        <mxCell id="N3vSe3UWMCj6YOlHDhKJ-55" value="F.1.1" style="html=1;align=center;spacing=0;verticalAlign=top;strokeColor=none;fillColor=none;whiteSpace=wrap;fontStyle=1" vertex="1" parent="N3vSe3UWMCj6YOlHDhKJ-54">
          <mxGeometry width="200" height="20" as="geometry" />
        </mxCell>
        <mxCell id="N3vSe3UWMCj6YOlHDhKJ-56" value="" style="line;strokeWidth=0.25;fillColor=none;align=left;verticalAlign=middle;spacingTop=-1;spacingLeft=3;spacingRight=3;rotatable=0;labelPosition=right;points=[];portConstraint=eastwest;" vertex="1" parent="N3vSe3UWMCj6YOlHDhKJ-54">
          <mxGeometry y="20" width="200" height="8" as="geometry" />
        </mxCell>
        <mxCell id="N3vSe3UWMCj6YOlHDhKJ-57" value="Function 11" style="html=1;align=center;spacing=0;verticalAlign=middle;strokeColor=none;fillColor=none;whiteSpace=wrap;" vertex="1" parent="N3vSe3UWMCj6YOlHDhKJ-54">
          <mxGeometry y="28" width="200" height="16" as="geometry" />
        </mxCell>
        <mxCell id="N3vSe3UWMCj6YOlHDhKJ-58" value="" style="html=1;align=center;spacing=0;verticalAlign=middle;strokeColor=none;fillColor=none;whiteSpace=wrap;" vertex="1" parent="N3vSe3UWMCj6YOlHDhKJ-54">
          <mxGeometry y="44" width="200" height="20" as="geometry" />
        </mxCell>
        <mxCell id="N3vSe3UWMCj6YOlHDhKJ-60" value="" style="fontStyle=1;align=center;verticalAlign=middle;childLayout=stackLayout;horizontal=1;horizontalStack=0;resizeParent=1;resizeParentMax=0;resizeLast=0;marginBottom=0;strokeWidth=2;" vertex="1" parent="1">
          <mxGeometry x="160" y="200" width="200" height="64" as="geometry" />
        </mxCell>
        <mxCell id="N3vSe3UWMCj6YOlHDhKJ-61" value="F.1.1" style="html=1;align=center;spacing=0;verticalAlign=top;strokeColor=none;fillColor=none;whiteSpace=wrap;fontStyle=1" vertex="1" parent="N3vSe3UWMCj6YOlHDhKJ-60">
          <mxGeometry width="200" height="20" as="geometry" />
        </mxCell>
        <mxCell id="N3vSe3UWMCj6YOlHDhKJ-62" value="" style="line;strokeWidth=0.25;fillColor=none;align=left;verticalAlign=middle;spacingTop=-1;spacingLeft=3;spacingRight=3;rotatable=0;labelPosition=right;points=[];portConstraint=eastwest;" vertex="1" parent="N3vSe3UWMCj6YOlHDhKJ-60">
          <mxGeometry y="20" width="200" height="8" as="geometry" />
        </mxCell>
        <mxCell id="N3vSe3UWMCj6YOlHDhKJ-63" value="Function 11" style="html=1;align=center;spacing=0;verticalAlign=middle;strokeColor=none;fillColor=none;whiteSpace=wrap;" vertex="1" parent="N3vSe3UWMCj6YOlHDhKJ-60">
          <mxGeometry y="28" width="200" height="16" as="geometry" />
        </mxCell>
        <mxCell id="N3vSe3UWMCj6YOlHDhKJ-64" value="" style="html=1;align=center;spacing=0;verticalAlign=middle;strokeColor=none;fillColor=none;whiteSpace=wrap;" vertex="1" parent="N3vSe3UWMCj6YOlHDhKJ-60">
          <mxGeometry y="44" width="200" height="20" as="geometry" />
        </mxCell>
        <mxCell id="N3vSe3UWMCj6YOlHDhKJ-68" style="edgeStyle=orthogonalEdgeStyle;rounded=0;orthogonalLoop=1;jettySize=auto;html=1;" edge="1" parent="1" source="N3vSe3UWMCj6YOlHDhKJ-66" target="N3vSe3UWMCj6YOlHDhKJ-64">
          <mxGeometry relative="1" as="geometry" />
        </mxCell>
        <mxCell id="N3vSe3UWMCj6YOlHDhKJ-66" value="Data / Resource" style="shape=parallelogram;html=1;strokeWidth=2;perimeter=parallelogramPerimeter;whiteSpace=wrap;rounded=1;arcSize=12;size=0.23;" vertex="1" parent="1">
          <mxGeometry x="185" y="330" width="150" height="70" as="geometry" />
        </mxCell>
        <mxCell id="N3vSe3UWMCj6YOlHDhKJ-72" value="" style="ellipse;whiteSpace=wrap;html=1;align=left;fillColor=none;strokeWidth=0.25;labelBackgroundColor=default;spacingTop=-1;spacingLeft=3;spacingRight=3;" vertex="1" parent="1">
          <mxGeometry x="400" y="202" width="40" height="44" as="geometry" />
        </mxCell>
        <mxCell id="N3vSe3UWMCj6YOlHDhKJ-73" value="" style="edgeStyle=orthogonalEdgeStyle;rounded=0;orthogonalLoop=1;jettySize=auto;html=1;" edge="1" parent="1" source="N3vSe3UWMCj6YOlHDhKJ-62" target="N3vSe3UWMCj6YOlHDhKJ-72">
          <mxGeometry relative="1" as="geometry" />
        </mxCell>
        <mxCell id="N3vSe3UWMCj6YOlHDhKJ-75" value="" style="shape=curlyBracket;whiteSpace=wrap;html=1;rounded=1;labelPosition=left;verticalLabelPosition=middle;align=right;verticalAlign=middle;" vertex="1" parent="1">
          <mxGeometry x="30" y="80" width="20" height="80" as="geometry" />
        </mxCell>
        <mxCell id="N3vSe3UWMCj6YOlHDhKJ-76" value="" style="shape=curlyBracket;whiteSpace=wrap;html=1;rounded=1;flipH=1;labelPosition=right;verticalLabelPosition=middle;align=left;verticalAlign=middle;" vertex="1" parent="1">
          <mxGeometry x="150" y="80" width="20" height="80" as="geometry" />
        </mxCell>
        <mxCell id="N3vSe3UWMCj6YOlHDhKJ-77" value="F.1 Ref&lt;div&gt;Function 1&lt;/div&gt;" style="text;html=1;align=center;verticalAlign=middle;whiteSpace=wrap;rounded=0;" vertex="1" parent="1">
          <mxGeometry x="50" y="80" width="100" height="80" as="geometry" />
        </mxCell>
        <mxCell id="N3vSe3UWMCj6YOlHDhKJ-78" value="" style="shape=curlyBracket;whiteSpace=wrap;html=1;rounded=1;labelPosition=left;verticalLabelPosition=middle;align=right;verticalAlign=middle;" vertex="1" parent="1">
          <mxGeometry x="370" y="40" width="20" height="80" as="geometry" />
        </mxCell>
        <mxCell id="N3vSe3UWMCj6YOlHDhKJ-79" value="" style="shape=curlyBracket;whiteSpace=wrap;html=1;rounded=1;flipH=1;labelPosition=right;verticalLabelPosition=middle;align=left;verticalAlign=middle;" vertex="1" parent="1">
          <mxGeometry x="490" y="40" width="20" height="80" as="geometry" />
        </mxCell>
        <mxCell id="N3vSe3UWMCj6YOlHDhKJ-80" value="F.3 Ref&lt;div&gt;Function 3&lt;/div&gt;" style="text;html=1;align=center;verticalAlign=middle;whiteSpace=wrap;rounded=0;" vertex="1" parent="1">
          <mxGeometry x="390" y="40" width="100" height="80" as="geometry" />
        </mxCell>
      </root>
    </mxGraphModel>
  </diagram>
</mxfile>
